nColumns=28
nRows=73
DataType=double
version=3
OpenSimVersion=4.1
endheader
time	ground_force_1_vx	ground_force_1_vy	ground_force_1_vz	ground_force_1_px	ground_force_1_py	ground_force_1_pz	ground_force_1_mx	ground_force_1_my	ground_force_1_mz	ground_force_2_vx	ground_force_2_vy	ground_force_2_vz	ground_force_2_px	ground_force_2_py	ground_force_2_pz	ground_force_2_mx	ground_force_2_my	ground_force_2_mz	ground_force_3_vx	ground_force_3_vy	ground_force_3_vz	ground_force_3_px	ground_force_3_py	ground_force_3_pz	ground_force_3_mx	ground_force_3_my	ground_force_3_mz
8.09	0	0	0	0	0	0	0	0	0	-10.4828	324.799	-29.5715	-0.244166	0.006	-1.05807	0	0.0246696	0	28.6407	306.427	8.05664	-0.119766	0.006	-1.471	0	1.06897	0
8.095	0	0	0	0	0	0	0	0	0	-9.65882	327.454	-30.1666	-0.244381	0.006	-1.05787	0	-0.0706521	0	29.1443	308.197	7.61413	-0.119642	0.006	-1.4707	0	1.0952	0
8.1	0	0	0	0	0	0	0	0	0	-8.83485	330.628	-30.4565	-0.24394	0.006	-1.05787	0	-0.103368	0	29.8309	311.615	7.24792	-0.119923	0.006	-1.47045	0	1.11828	0
8.105	0	0	0	0	0	0	0	0	0	-8.07191	334.259	-30.7312	-0.244558	0.006	-1.05754	0	-0.119559	0	30.5786	314.575	6.7749	-0.119828	0.006	-1.46987	0	1.09065	0
8.11	0	0	0	0	0	0	0	0	0	-7.27845	337.494	-31.0516	-0.244808	0.006	-1.05759	0	-0.224127	0	31.3568	317.596	6.30188	-0.119883	0.006	-1.46998	0	1.0812	0
8.115	0	0	0	0	0	0	0	0	0	-6.69862	340.607	-31.1584	-0.245315	0.006	-1.05764	0	-0.28716	0	31.9824	321.838	5.50842	-0.120208	0.006	-1.47009	0	1.14417	0
8.12	0	0	0	0	0	0	0	0	0	-5.72206	344.452	-31.6162	-0.245073	0.006	-1.05741	0	-0.34461	0	32.6538	326.111	5.24902	-0.120305	0.006	-1.46997	0	1.19476	0
8.125	0	0	0	0	0	0	0	0	0	-4.73024	347.473	-31.7077	-0.245255	0.006	-1.05734	0	-0.386399	0	33.02	328.949	4.66918	-0.120392	0.006	-1.46983	0	1.24824	0
8.13	0	0	0	0	0	0	0	0	0	-4.05885	350.555	-32.0282	-0.245395	0.006	-1.05699	0	-0.443131	0	33.371	332.672	4.10461	-0.120102	0.006	-1.46972	0	1.28354	0
8.135	0	0	0	0	0	0	0	0	0	-3.1891	353.424	-31.9061	-0.245478	0.006	-1.05686	0	-0.473398	0	34.1797	336.792	3.75366	-0.120395	0.006	-1.46967	0	1.26178	0
8.14	0	0	0	0	0	0	0	0	0	-2.24305	355.866	-32.0587	-0.245574	0.006	-1.05693	0	-0.527572	0	34.2102	340.149	3.2196	-0.120498	0.006	-1.46964	0	1.26545	0
8.145	0	0	0	0	0	0	0	0	0	-1.60218	358.032	-32.2418	-0.24594	0.006	-1.05711	0	-0.599365	0	34.5917	343.384	2.86865	-0.120316	0.006	-1.46949	0	1.3604	0
8.15	0	0	0	0	0	0	0	0	0	-0.946056	359.741	-32.1808	-0.246054	0.006	-1.05721	0	-0.654548	0	34.6985	346.313	2.50244	-0.12023	0.006	-1.4695	0	1.38334	0
8.155	0	0	0	0	0	0	0	0	0	-0.686656	362.213	-32.1655	-0.245432	0.006	-1.05706	0	-0.640096	0	34.7748	348.572	2.60925	-0.120344	0.006	-1.46975	0	1.4098	0
8.16	0	0	0	0	0	0	0	0	0	-0.549328	364.258	-32.3486	-0.245401	0.006	-1.05706	0	-0.682645	0	34.6985	350.372	2.73132	-0.120266	0.006	-1.46962	0	1.46606	0
8.165	0	0	0	0	0	0	0	0	0	-0.549327	365.814	-32.5165	-0.245771	0.006	-1.0571	0	-0.750291	0	34.5306	350.555	2.94494	-0.120293	0.006	-1.46953	0	1.47442	0
8.17	0	0	0	0	0	0	0	0	0	-0.823985	367.737	-32.6233	-0.245611	0.006	-1.05696	0	-0.741513	0	34.3018	350.647	3.18908	-0.12037	0.006	-1.46987	0	1.5507	0
8.175	0	0	0	0	0	0	0	0	0	-1.02235	368.713	-32.6843	-0.24486	0.006	-1.05687	0	-0.853714	0	34.1797	350.128	3.37219	-0.120133	0.006	-1.46996	0	1.57451	0
8.18	0	0	0	0	0	0	0	0	0	-1.55641	369.415	-32.6233	-0.244226	0.006	-1.0567	0	-0.82973	0	33.7982	349.182	3.66211	-0.120115	0.006	-1.47005	0	1.5271	0
8.185	0	0	0	0	0	0	0	0	0	-2.22779	368.652	-32.669	-0.244142	0.006	-1.0569	0	-0.826928	0	33.5541	347.351	3.76892	-0.120172	0.006	-1.47018	0	1.59402	0
8.19	0	0	0	0	0	0	0	0	0	-2.76185	368.561	-32.5622	-0.243715	0.006	-1.05693	0	-0.855452	0	33.1421	345.764	3.95202	-0.120272	0.006	-1.47016	0	1.55832	0
8.195	0	0	0	0	0	0	0	0	0	-3.6316	367.92	-32.5012	-0.24332	0.006	-1.05661	0	-0.842856	0	32.7301	342.499	4.04358	-0.120375	0.006	-1.47059	0	1.55229	0
8.2	0	0	0	0	0	0	0	0	0	-4.08937	366.455	-32.3486	-0.242526	0.006	-1.05678	0	-0.855335	0	32.3791	338.745	4.10461	-0.120417	0.006	-1.47082	0	1.52034	0
8.205	0	0	0	0	0	0	0	0	0	-4.79127	364.624	-31.9214	-0.241959	0.006	-1.0564	0	-0.793961	0	32.135	334.137	4.13513	-0.120238	0.006	-1.47131	0	1.49415	0
8.21	0	0	0	0	0	0	0	0	0	-5.31007	361.969	-31.723	-0.241632	0.006	-1.05662	0	-0.817038	0	31.4636	329.926	4.24194	-0.120527	0.006	-1.47181	0	1.4784	0
8.215	0	0	0	0	0	0	0	0	0	-5.78309	358.673	-31.311	-0.241295	0.006	-1.05685	0	-0.78311	0	31.0669	324.86	4.31823	-0.120629	0.006	-1.47209	0	1.46641	0
8.22	0	0	0	0	0	0	0	0	0	-5.95094	355.53	-31.2195	-0.24035	0.006	-1.05642	0	-0.822284	0	30.3955	319	4.34875	-0.12035	0.006	-1.47233	0	1.43594	0
8.225	0	0	0	0	0	0	0	0	0	-6.37818	352.112	-30.7464	-0.239889	0.006	-1.05649	0	-0.811354	0	29.8004	313.66	4.21142	-0.12068	0.006	-1.4729	0	1.39605	0
8.23	0	0	0	0	0	0	0	0	0	-6.91224	348.267	-30.3955	-0.239156	0.006	-1.05652	0	-0.69205	0	29.2816	307.587	4.10461	-0.120632	0.006	-1.47306	0	1.38956	0
8.235	0	0	0	0	0	0	0	0	0	-7.23268	344.635	-30.1971	-0.238817	0.006	-1.05648	0	-0.748041	0	28.3356	301.392	3.87573	-0.120517	0.006	-1.47343	0	1.36583	0
8.24	0	0	0	0	0	0	0	0	0	-8.16346	340.973	-29.9072	-0.237882	0.006	-1.05659	0	-0.62499	0	27.6489	296.173	3.82995	-0.120592	0.006	-1.47412	0	1.31337	0
8.245	0	0	0	0	0	0	0	0	0	-8.62123	336.609	-29.4647	-0.237238	0.006	-1.05667	0	-0.654737	0	27.0386	290.222	3.49426	-0.12043	0.006	-1.47462	0	1.37827	0
8.25	0	0	0	0	0	0	0	0	0	-8.78907	333.099	-29.129	-0.236398	0.006	-1.05599	0	-0.679854	0	26.0315	285.278	3.34167	-0.120634	0.006	-1.47474	0	1.32924	0
8.255	0	0	0	0	0	0	0	0	0	-8.69752	327.759	-28.8849	-0.235688	0.006	-1.05602	0	-0.561476	0	25.3754	280.579	3.12805	-0.120427	0.006	-1.47476	0	1.32781	0
8.26	0	0	0	0	0	0	0	0	0	-8.39234	322.357	-28.2745	-0.235301	0.006	-1.05634	0	-0.600863	0	24.826	275.452	2.59399	-0.120598	0.006	-1.47498	0	1.32335	0
8.265	0	0	0	0	0	0	0	0	0	-8.34657	316.406	-27.5879	-0.234751	0.006	-1.05641	0	-0.54727	0	24.1852	271.271	2.12097	-0.120649	0.006	-1.47497	0	1.29445	0
8.27	0	0	0	0	0	0	0	0	0	-8.01087	310.821	-27.1911	-0.234352	0.006	-1.05616	0	-0.528876	0	23.5748	266.968	1.5564	-0.120686	0.006	-1.47524	0	1.31688	0
8.275	0	0	0	0	0	0	0	0	0	-7.15638	304.748	-26.3672	-0.234072	0.006	-1.0563	0	-0.549292	0	22.934	261.658	0.99182	-0.120561	0.006	-1.47512	0	1.31121	0
8.28	0	0	0	0	0	0	0	0	0	-6.6681	298.798	-25.7415	-0.234051	0.006	-1.05656	0	-0.567172	0	22.171	254.669	0.762939	-0.120365	0.006	-1.47488	0	1.26442	0
8.285	0	0	0	0	0	0	0	0	0	-5.72206	291.992	-24.8413	-0.234168	0.006	-1.05662	0	-0.5899	0	21.4539	247.62	0.411986	-0.120309	0.006	-1.47467	0	1.19134	0
8.29	0	0	0	0	0	0	0	0	0	-4.59291	284.637	-24.1699	-0.233631	0.006	-1.05658	0	-0.537762	0	21.347	240.814	0.656127	-0.120543	0.006	-1.4754	0	1.14449	0
8.295	0	0	0	0	0	0	0	0	0	-3.7079	275.909	-23.1018	-0.23363	0.006	-1.05646	0	-0.571192	0	20.8588	234.222	0.900268	-0.120794	0.006	-1.47589	0	1.14832	0
8.3	0	0	0	0	0	0	0	0	0	-3.03651	266.54	-22.0947	-0.233399	0.006	-1.05658	0	-0.595225	0	20.6299	228.821	0.900268	-0.12061	0.006	-1.47569	0	1.11906	0
8.305	0	0	0	0	0	0	0	0	0	-2.88392	257.233	-21.1792	-0.232417	0.006	-1.05699	0	-0.532088	0	20.7672	223.999	0.808716	-0.120697	0.006	-1.47588	0	1.0388	0
8.31	0	0	0	0	0	0	0	0	0	-2.9297	248.26	-20.5536	-0.23226	0.006	-1.05723	0	-0.459528	0	20.8282	219.879	0.686646	-0.121041	0.006	-1.47608	0	0.982042	0
8.315	0	0	0	0	0	0	0	0	0	-3.1891	240.631	-19.8669	-0.230498	0.006	-1.05635	0	-0.433289	0	21.0266	216.675	0.228882	-0.121164	0.006	-1.47649	0	0.918505	0
8.32	0	0	0	0	0	0	0	0	0	-3.73841	232.269	-19.2718	-0.229479	0.006	-1.05696	0	-0.42452	0	21.1182	213.684	-0.610351	-0.121113	0.006	-1.47638	0	0.934313	0
8.325	0	0	0	0	0	0	0	0	0	-3.98255	224.792	-18.5852	-0.228634	0.006	-1.05671	0	-0.468324	0	21.0266	210.754	-1.43433	-0.121093	0.006	-1.47667	0	0.913045	0
8.33	0	0	0	0	0	0	0	0	0	-4.10462	216.614	-18.0969	-0.227179	0.006	-1.0567	0	-0.525803	0	20.9961	209.167	-2.2583	-0.12137	0.006	-1.47725	0	0.872972	0
8.335	0	0	0	0	0	0	0	0	0	-3.90626	208.923	-17.5781	-0.225937	0.006	-1.05646	0	-0.528597	0	20.5841	207.367	-2.65503	-0.121612	0.006	-1.47768	0	0.843856	0
8.34	0	0	0	0	0	0	0	0	0	-3.46375	200.714	-16.983	-0.223698	0.006	-1.05614	0	-0.551991	0	20.6757	205.322	-2.28882	-0.121453	0.006	-1.47899	0	0.749211	0
8.345	0	0	0	0	0	0	0	0	0	-3.14332	192.474	-16.5405	-0.223068	0.006	-1.05649	0	-0.531476	0	20.8282	203.796	-1.78528	-0.121489	0.006	-1.4794	0	0.764069	0
8.35	0	0	0	0	0	0	0	0	0	-3.57057	184.814	-16.2964	-0.221952	0.006	-1.05644	0	-0.468941	0	20.462	201.965	-1.23596	-0.121392	0.006	-1.48032	0	0.726276	0
8.355	0	0	0	0	0	0	0	0	0	-4.80653	180.145	-16.3269	-0.220359	0.006	-1.05558	0	-0.509628	0	20.4926	201.233	-0.0610344	-0.1215	0.006	-1.48158	0	0.700275	0
8.36	0	0	0	0	0	0	0	0	0	-7.61414	178.009	-16.6778	-0.219078	0.006	-1.0555	0	-0.43938	0	21.0876	202.24	1.63269	-0.121723	0.006	-1.48257	0	0.65888	0
8.365	0	0	0	0	0	0	0	0	0	-10.8948	177.124	-17.2729	-0.218511	0.006	-1.05567	0	-0.358014	0	21.347	205.261	3.31116	-0.121795	0.006	-1.48248	0	0.612568	0
8.37	0	0	0	0	0	0	0	0	0	-13.504	177.643	-18.0511	-0.218392	0.006	-1.05612	0	-0.345174	0	22.2321	209.381	4.50134	-0.121823	0.006	-1.48268	0	0.581757	0
8.375	0	0	0	0	0	0	0	0	0	-14.9994	179.199	-18.7378	-0.218205	0.006	-1.05536	0	-0.326207	0	23.6969	215.118	4.74548	-0.121911	0.006	-1.48215	0	0.566251	0
8.38	0	0	0	0	0	0	0	0	0	-15.3809	180.328	-19.3023	-0.219779	0.006	-1.05527	0	-0.391514	0	25.2991	221.222	3.89099	-0.121921	0.006	-1.48128	0	0.579626	0
8.385	0	0	0	0	0	0	0	0	0	-14.5264	181.732	-19.516	-0.22005	0.006	-1.0557	0	-0.341122	0	27.2217	226.929	2.16675	-0.122411	0.006	-1.4796	0	0.606836	0
8.39	0	0	0	0	0	0	0	0	0	-12.2223	183.441	-19.9432	-0.22211	0.006	-1.05542	0	-0.462585	0	28.7018	230.682	-0.289916	-0.122391	0.006	-1.4789	0	0.606448	0
8.395	0	0	0	0	0	0	0	0	0	-9.27735	183.472	-19.989	-0.224181	0.006	-1.05535	0	-0.507179	0	29.8767	232.849	-3.28064	-0.122664	0.006	-1.47785	0	0.583848	0
8.4	0	0	0	0	0	0	0	0	0	-5.69153	183.349	-20.2331	-0.22543	0.006	-1.05516	0	-0.508547	0	30.5023	232.483	-6.62231	-0.123366	0.006	-1.47683	0	0.644914	0
8.405	0	0	0	0	0	0	0	0	0	-2.42615	183.411	-20.5993	-0.228383	0.006	-1.05482	0	-0.547546	0	30.9753	229.706	-9.58252	-0.123491	0.006	-1.4765	0	0.704551	0
8.41	0	0	0	0	0	0	0	0	0	-0.305181	184.173	-21.4843	-0.22991	0.006	-1.05456	0	-0.568366	0	30.8685	226.227	-12.2681	-0.123665	0.006	-1.47656	0	0.720493	0
8.415	0	0	0	0	0	0	0	0	0	1.09863	186.462	-22.2473	-0.230304	0.006	-1.05427	0	-0.506389	0	31.2805	221.802	-13.8397	-0.124086	0.006	-1.47698	0	0.771803	0
8.42	0	0	0	0	0	0	0	0	0	2.16674	190.521	-23.3154	-0.2315	0.006	-1.05344	0	-0.488024	0	31.7078	218.231	-13.855	-0.124202	0.006	-1.47726	0	0.773025	0
8.425	0	0	0	0	0	0	0	0	0	2.56347	195.618	-23.9715	-0.232566	0.006	-1.05305	0	-0.483799	0	31.6772	216.248	-13.5345	-0.124721	0.006	-1.47784	0	0.795849	0
8.43	0	0	0	0	0	0	0	0	0	2.30407	201.385	-24.0936	-0.23348	0.006	-1.05366	0	-0.533574	0	31.9977	215.027	-12.1918	-0.124824	0.006	-1.47818	0	0.841171	0
8.435	0	0	0	0	0	0	0	0	0	1.9989	206.726	-23.8189	-0.233756	0.006	-1.05448	0	-0.56143	0	32.5623	214.6	-10.4828	-0.124943	0.006	-1.47868	0	0.881868	0
8.44	0	0	0	0	0	0	0	0	0	2.12097	210.754	-22.8729	-0.234472	0.006	-1.05439	0	-0.749791	0	32.8827	217.163	-8.255	-0.125286	0.006	-1.47901	0	0.863719	0
8.445	0	0	0	0	0	0	0	0	0	3.05175	212.341	-22.171	-0.23445	0.006	-1.05443	0	-0.895483	0	33.6456	221.313	-6.24084	-0.125426	0.006	-1.47887	0	0.930682	0
8.45	0	0	0	0	0	0	0	0	0	3.31115	213.257	-21.4843	-0.234681	0.006	-1.05478	0	-1.11702	0	34.9121	226.654	-4.40979	-0.125426	0.006	-1.47902	0	0.981735	0
